<?xml version="1.0" standalone="no"?>
<!DOCTYPE svg PUBLIC "-//W3C//DTD SVG 20010904//EN"
 "http://www.w3.org/TR/2001/REC-SVG-20010904/DTD/svg10.dtd">
<svg version="1.0" xmlns="http://www.w3.org/2000/svg"
 width="344.000000pt" height="344.000000pt" viewBox="0 0 344.000000 344.000000"
 preserveAspectRatio="xMidYMid meet">
<metadata>
Created by potrace 1.11, written by Peter Selinger 2001-2013
</metadata>
<g transform="translate(0.000000,344.000000) scale(0.100000,-0.100000)"
fill="#000000" stroke="none">
<path d="M1560 3001 c-74 -26 -283 -101 -465 -165 -181 -65 -368 -131 -415
-148 -176 -62 -246 -86 -266 -92 -11 -4 -30 -16 -41 -29 -43 -46 -343 -561
-343 -588 0 -47 29 -67 175 -118 l140 -49 3 -469 2 -470 23 -21 c13 -12 99
-48 192 -81 94 -32 233 -81 310 -109 77 -28 208 -73 290 -102 83 -28 159 -56
170 -61 11 -5 34 -13 50 -18 17 -5 95 -32 173 -60 79 -28 152 -51 162 -51 10
0 299 99 642 221 342 122 637 225 653 231 17 6 40 21 52 34 22 24 22 25 22
485 0 254 2 464 4 465 2 2 61 24 132 49 151 53 171 64 180 104 8 36 5 42 -143
286 -147 243 -159 264 -179 302 -14 28 -31 36 -177 88 -89 31 -300 106 -471
167 -170 60 -348 123 -395 139 -47 17 -92 33 -100 36 -114 43 -209 73 -225 72
-11 0 -81 -22 -155 -48z m350 -179 c118 -42 504 -180 685 -243 83 -29 153 -55
158 -59 6 -5 -249 -98 -820 -300 l-133 -47 0 344 c0 272 3 344 13 340 6 -2 50
-18 97 -35z m-1403 -416 c33 -13 349 -125 946 -337 143 -50 147 -52 134 -73
-8 -12 -58 -95 -112 -186 -54 -91 -102 -170 -107 -177 -11 -13 -12 -13 -203
55 -77 28 -243 87 -370 132 -126 44 -252 89 -280 100 -41 15 -225 80 -273 96
-8 2 -12 8 -10 13 5 13 232 391 235 391 1 0 20 -6 40 -14z m2675 -393 c-15 -7
-135 -50 -267 -97 -132 -46 -374 -132 -539 -191 -164 -58 -299 -105 -300 -103
-16 22 -235 392 -233 394 3 3 246 91 442 159 99 35 239 84 310 110 72 26 186
67 254 90 l125 44 118 -197 118 -197 -28 -12z m-1367 -266 c141 -241 173 -287
202 -298 28 -10 56 -2 543 171 80 29 188 67 240 85 52 18 103 36 113 40 16 7
17 -16 17 -388 0 -367 -1 -395 -17 -402 -10 -3 -164 -58 -343 -121 -179 -63
-347 -124 -375 -134 -27 -10 -126 -46 -220 -78 l-170 -60 -5 342 c-5 374 -5
371 -65 382 -30 5 -80 -18 -89 -41 -3 -9 -6 -167 -6 -350 l0 -333 -142 50
c-189 66 -277 97 -433 153 -71 26 -134 47 -140 49 -5 1 -14 4 -20 8 -5 3 -26
10 -45 16 -19 5 -80 27 -135 47 -55 20 -120 43 -145 51 -25 8 -51 18 -58 22
-9 7 -12 93 -10 400 l3 391 125 -44 c69 -24 197 -69 285 -100 88 -31 233 -82
322 -114 l161 -56 28 21 c15 11 84 115 153 232 69 116 128 211 131 211 3 0 45
-68 95 -152z"/>
</g>
</svg>
